<svg width="30" height="25" viewBox="0 0 30 25" fill="none" xmlns="http://www.w3.org/2000/svg">
<path d="M5.75503 0C2.57753 0 2.67102e-08 2.54375 5.96654e-08 5.68225C9.26008e-08 8.81885 2.57753 11.3645 5.75503 11.3645C11.5081 11.3645 7.67337 22.3483 2.34664e-07 22.3483L2.62508e-07 25C13.6948 25.0019 19.0611 0 5.75503 0ZM22.3333 0C19.1578 0 16.5802 2.54375 16.5802 5.68225C16.5802 8.81885 19.1578 11.3645 22.3333 11.3645C28.0883 11.3645 24.2536 22.3483 16.5802 22.3483L16.5802 25C30.2731 25.0019 35.6393 0 22.3333 0Z" fill="#EAEAEA"/>
</svg>
